<?xml version="1.0" standalone="no"?>
<!DOCTYPE svg PUBLIC "-//W3C//DTD SVG 20010904//EN"
 "http://www.w3.org/TR/2001/REC-SVG-20010904/DTD/svg10.dtd">
<svg version="1.0" xmlns="http://www.w3.org/2000/svg"
 width="280.000000pt" height="280.000000pt" viewBox="0 0 280.000000 280.000000"
 preserveAspectRatio="xMidYMid meet">
<metadata>
Created by potrace 1.11, written by Peter Selinger 2001-2013
</metadata>
<g transform="translate(0.000000,280.000000) scale(0.100000,-0.100000)"
fill="#000000" stroke="none">
<path d="M1120 2741 c-232 -50 -454 -161 -625 -313 -233 -208 -382 -463 -445
-761 -26 -120 -28 -404 -4 -528 107 -567 556 -1004 1133 -1104 108 -19 321
-19 439 0 185 30 387 111 552 220 97 64 301 268 365 365 157 236 235 495 235
775 0 220 -42 401 -139 600 -191 391 -554 668 -980 749 -120 23 -417 21 -531
-3z m798 -1108 l-3 -638 -28 -79 c-50 -143 -118 -223 -248 -291 -86 -45 -177
-65 -299 -65 -183 0 -321 49 -421 149 -78 79 -115 164 -134 314 l-6 47 175 0
176 0 0 -33 c0 -55 29 -124 66 -156 82 -72 228 -67 305 10 70 70 69 59 69 756
l0 623 176 0 176 0 -4 -637z"/>
</g>
</svg>
